# xmcd
#
# Track frame offsets:
#	150
#	33738
#	87951
#	126222
#	169412
#	204890
#
# Disc length: 3191 seconds
# Revision: 2
# Processed by: cddbd v1.5.2PL0 Copyright (c) Steve Scherf et al.
# Submitted via: dBpowerAMP V12.0
#
DISCID=4d0c7506
DTITLE=Lester Levenson - The Ultimate Goal Vol 02 CD 06
DYEAR=2000
DGENRE=Home Study
TTITLE0=Beingness pt 1
TTITLE1=Beingness pt 2
TTITLE2=Beingness pt 3
TTITLE3=Beingness pt 4
TTITLE4=Beingness pt 5
TTITLE5=Beingness pt 6
EXTD=
EXTT0=
EXTT1=
EXTT2=
EXTT3=
EXTT4=
EXTT5=
PLAYORDER=
